<svg width="32" height="36" viewBox="0 0 32 36" fill="none" xmlns="http://www.w3.org/2000/svg">
<rect x="9.29431" y="20.7051" width="5.98149" height="6.16553" fill="#383838"/>
<rect x="0.233276" y="0.567627" width="24.843" height="20.9941" rx="1.86614" fill="#DBDBD9"/>
<path d="M31.7827 11.3069C31.1762 7.94785 27.0202 5.86399 25.018 5.24194C22.8408 5.53353 19.7928 6.55991 25.018 8.33274C31.5495 10.5488 32.5409 15.5057 31.7827 11.3069Z" fill="#C93A30"/>
<path d="M26.4176 0.567557C27.5373 2.71362 25.9511 3.63892 25.018 3.83331C21.9855 4.41648 18.02 5.58282 26.4176 5.58282C36.9146 5.58282 25.018 -2.11502 26.4176 0.567557Z" fill="#C93A30"/>
<ellipse cx="7.58123" cy="11.4189" rx="3.88118" ry="2.20769" transform="rotate(36.6076 7.58123 11.4189)" fill="white"/>
<ellipse opacity="0.5" cx="17.1699" cy="11.2933" rx="3.90563" ry="2.26425" transform="rotate(140.729 17.1699 11.2933)" fill="white"/>
<ellipse cx="9.03915" cy="12.3476" rx="1.69119" ry="1.39961" fill="black"/>
<ellipse cx="15.8039" cy="12.5226" rx="1.80783" ry="1.45792" fill="black"/>
<path d="M16.9702 12.2893C16.9119 12.6975 16.9702 12.3476 16.9119 12.6392C16.737 12.3476 16.8536 12.2893 16.5037 11.8811C16.2704 11.4729 15.8256 11.4146 16.2121 11.4146C16.5986 11.4146 16.8536 11.8228 16.9702 12.2893Z" fill="#C4C4C4"/>
<path d="M8.17517 11.4164C8.46676 11.2415 8.34645 11.3102 8.64171 11.2998C8.47675 11.5971 8.40116 11.3739 8.22271 11.8811C7.98593 12.2873 8.04794 12.9035 7.8546 12.5688C7.66127 12.2342 7.82955 11.7508 8.17517 11.4164Z" fill="#C4C4C4"/>
<path d="M8.74756 19.8704C10.7692 18.3541 15.0808 15.9165 16.1538 18.2958" stroke="black" stroke-width="0.116634"/>
<rect y="3.71655" width="25.0763" height="4.78199" fill="#C93A30"/>
<rect x="6.065" y="28.9097" width="3.26575" height="6.41487" rx="1.63287" fill="#CCB4C1"/>
<rect x="14.5792" y="28.9097" width="3.26575" height="6.41487" rx="1.63287" fill="#CCB4C1"/>
<circle cx="16.5037" cy="23.3695" r="1.92446" fill="#CCB4C1"/>
<circle cx="16.5037" cy="23.3695" r="1.92446" fill="#CCB4C1"/>
<rect x="8.28101" y="21.7766" width="7.93111" height="8.51428" rx="1.74951" fill="#383838"/>
<rect x="8.28101" y="23.5444" width="7.93111" height="8.51428" rx="2.79921" fill="#383838"/>
<circle cx="16.5037" cy="23.3695" r="1.92446" fill="#CCB4C1"/>
<circle cx="16.5037" cy="23.3695" r="1.92446" fill="#CCB4C1"/>
<circle cx="7.98946" cy="23.3695" r="1.92446" fill="#CCB4C1"/>
<circle cx="7.98946" cy="23.3695" r="1.92446" fill="#CCB4C1"/>
</svg>
